<svg width="24" height="24" viewBox="0 0 24 24" fill="none" xmlns="http://www.w3.org/2000/svg">
<path fill-rule="evenodd" clip-rule="evenodd" d="M6 3C6 2.44772 6.44772 2 7 2C7.55228 2 8 2.44772 8 3V4H16V3C16 2.44772 16.4477 2 17 2C17.5523 2 18 2.44772 18 3V4.12602C19.7252 4.57006 21 6.13616 21 8V10V18C21 20.2091 19.2091 22 17 22H7C4.79086 22 3 20.2091 3 18V10V8C3 6.13616 4.27477 4.57006 6 4.12602V3ZM7 20C5.89543 20 5 19.1046 5 18V10C5 8.89543 5.89543 8 7 8H17C18.1046 8 19 8.89543 19 10V18C19 19.1046 18.1046 20 17 20H7Z"/>
</svg>
