<svg width="24" height="24" viewBox="0 0 24 24" fill="none" xmlns="http://www.w3.org/2000/svg">
<path fill-rule="evenodd" clip-rule="evenodd" d="M17.1535 5.43254C17.544 5.04202 18.1772 5.04202 18.5677 5.43254C18.9583 5.82307 18.9583 6.45623 18.5677 6.84676L13.4144 12.0001L18.5677 17.1535C18.9583 17.544 18.9583 18.1772 18.5677 18.5677C18.1772 18.9583 17.544 18.9583 17.1535 18.5677L12.0001 13.4143L6.84676 18.5677C6.45623 18.9583 5.82307 18.9583 5.43254 18.5677C5.04202 18.1772 5.04202 17.544 5.43254 17.1535L10.5859 12.0001L5.43255 6.84676C5.04203 6.45623 5.04203 5.82307 5.43255 5.43254C5.82308 5.04202 6.45624 5.04202 6.84677 5.43254L12.0001 10.5859L17.1535 5.43254Z" />
</svg>
