<svg width="24" height="24" viewBox="0 0 24 24" fill="none" xmlns="http://www.w3.org/2000/svg">
<path fill-rule="evenodd" clip-rule="evenodd" d="M5 4C4.44772 4 4 4.44772 4 5C4 5.55228 4.44772 6 5 6H19C19.5523 6 20 5.55228 20 5C20 4.44772 19.5523 4 19 4H16L15.5528 3.10557C15.214 2.428 14.5215 2 13.7639 2H10.2361C9.47852 2 8.786 2.428 8.44721 3.10557L8 4H5ZM6.99655 8.91695C6.95068 8.36658 6.46733 7.95759 5.91695 8.00345C5.36658 8.04932 4.95759 8.53267 5.00345 9.08305L5.77422 18.3322C5.94698 20.4053 7.68004 22 9.7604 22H14.2396C16.32 22 18.053 20.4053 18.2258 18.3322L18.9965 9.08305C19.0424 8.53267 18.6334 8.04932 18.083 8.00345C17.5327 7.95759 17.0493 8.36658 17.0035 8.91695L16.2327 18.1661C16.1463 19.2027 15.2798 20 14.2396 20H9.7604C8.72022 20 7.85369 19.2027 7.76731 18.1661L6.99655 8.91695Z" />
</svg>
