<svg width="24" height="24" viewBox="0 0 24 24" fill="none" xmlns="http://www.w3.org/2000/svg">
<path fill-rule="evenodd" clip-rule="evenodd" d="M12 3C12.5523 3 13 3.44772 13 4L13 13H14.7929C15.2384 13 15.4614 13.5386 15.1465 13.8536L12.7071 16.2929C12.3166 16.6834 11.6834 16.6834 11.2929 16.2929L8.85357 13.8536C8.53858 13.5386 8.76167 13 9.20712 13H11L11 4C11 3.44772 11.4477 3 12 3ZM19 21C19.5523 21 20 20.5523 20 20C20 19.4477 19.5523 19 19 19L5 19C4.44772 19 4 19.4477 4 20C4 20.5523 4.44772 21 5 21L19 21Z" />
</svg>
