<svg width="24" height="24" viewBox="0 0 24 24" fill="none" xmlns="http://www.w3.org/2000/svg">
<path fill-rule="evenodd" clip-rule="evenodd" d="M15.0001 6.00015L16.5001 4.50015C17.0523 3.94787 17.9478 3.94787 18.5001 4.50015C19.0523 5.05244 19.0523 5.94787 18.5001 6.50015L17.0001 8.00015L15.0001 6.00015ZM7.74692 20.0002H20.0001C20.5523 20.0002 21.0001 19.5524 21.0001 19.0002C21.0001 18.4479 20.5523 18.0002 20.0001 18.0002H9.82836L8.32267 19.5058C8.14316 19.6853 7.95064 19.8505 7.74692 20.0002ZM6.99993 18.0002L16.0001 9.00015L14.0001 7.00015L4.59339 15.9364C4.20485 16.3055 3.92228 16.7719 3.77505 17.2872L3.28885 18.9889C3.17313 19.394 3.57941 19.7518 3.96657 19.5859L4.14042 19.5114L4.53119 19.3439L5.26936 19.0275L5.3702 18.9843L5.9689 18.7277L5.96891 18.7277C5.96891 18.7277 5.96891 18.7277 5.96891 18.7277C5.96891 18.7277 5.9689 18.7277 5.9689 18.7277M6.90846 18.0916L6.99993 18.0002Z" />
</svg>
