<svg width="24" height="24" viewBox="0 0 24 24" fill="none" xmlns="http://www.w3.org/2000/svg">
<path fill-rule="evenodd" clip-rule="evenodd" d="M14.9998 6.00015L16.4998 4.50015C17.0521 3.94787 17.9475 3.94787 18.4998 4.50015C19.0521 5.05244 19.0521 5.94787 18.4998 6.50015L16.9998 8.00015L14.9998 6.00015ZM7.74668 20.0002H19.9998C20.5521 20.0002 20.9998 19.5524 20.9998 19.0002C20.9998 18.4479 20.5521 18.0002 19.9998 18.0002H9.82811L8.32243 19.5058C8.14292 19.6853 7.9504 19.8505 7.74668 20.0002ZM6.99969 18.0002L15.9998 9.00015L13.9998 7.00015L4.59315 15.9364C4.20461 16.3055 3.92204 16.7719 3.77481 17.2872L3.2886 18.9889C3.17288 19.394 3.57916 19.7518 3.96632 19.5859L4.14018 19.5114L4.53094 19.3439L5.26911 19.0275L5.36996 18.9843L5.96865 18.7277L5.96866 18.7277C5.96866 18.7277 5.96867 18.7277 5.96867 18.7277C5.96866 18.7277 5.96866 18.7277 5.96865 18.7277M6.90822 18.0916L6.99969 18.0002Z"/>
</svg>
