<svg width="137" height="152" viewBox="0 0 137 152" fill="none" xmlns="http://www.w3.org/2000/svg">
<path d="M12.9326 28.0315C14.4475 27.5265 15.3311 25.8855 14.8262 24.3707C14.3212 22.8558 12.6802 21.9722 11.0391 22.4771C9.52428 22.9821 8.64063 24.6231 9.14557 26.138C9.65051 27.6528 11.2916 28.5364 12.9326 28.0315Z" fill="#E7E4F7"/>
<path d="M19.3712 18.4377C20.381 18.059 21.0122 16.9229 20.6335 15.913C20.2548 14.9031 19.1187 14.2719 18.1088 14.6506C17.0989 15.0293 16.4677 16.1655 16.8464 17.1754C17.0989 18.1852 18.235 18.8164 19.3712 18.4377Z" fill="#E7E4F7"/>
<path d="M126.239 41.3788C128.132 39.7377 128.259 36.8343 126.491 35.067C124.85 33.2997 121.947 33.1735 120.179 34.8145C118.286 36.4556 118.16 39.359 119.927 41.1263C121.568 42.8936 124.471 43.0199 126.239 41.3788Z" fill="#E7E4F7"/>
<path d="M133.055 50.224C133.813 49.4666 133.939 48.3305 133.182 47.5731C132.424 46.8157 131.288 46.6894 130.531 47.4469C129.773 48.2043 129.647 49.3404 130.404 50.0978C131.036 50.9815 132.298 50.9815 133.055 50.224Z" fill="#E7E4F7"/>
<path d="M18.109 125.107C18.8665 124.349 18.9927 123.213 18.2353 122.456C17.4779 121.698 16.3417 121.572 15.5843 122.33C14.8269 123.087 14.7007 124.223 15.4581 124.981C16.2155 125.738 17.3516 125.864 18.109 125.107Z" fill="#E7E4F7"/>
<path d="M65.8259 131.293C98.2685 131.293 124.652 105.036 124.652 72.7192C124.526 40.2766 98.2685 14.0195 65.8259 14.0195C33.257 14.0195 7 40.2766 7 72.593C7 105.036 33.257 131.293 65.8259 131.293Z" fill="#E7E4F7"/>
<path d="M104.865 42.4018V46.9383H104.516H100.096L32.2818 46.7056C31.0023 46.7056 29.7228 46.473 28.4433 46.124C28.3269 46.124 28.2106 46.0077 28.0943 46.0077C26.4658 45.4261 25.07 44.7282 23.9068 43.565C22.9762 42.6345 22.2783 41.2386 22.2783 39.9591C22.2783 37.5164 24.2558 35.6553 27.0474 34.4921C27.978 34.0268 29.1412 33.7942 30.3044 33.6778C30.7697 33.6778 31.2349 33.5615 31.7002 33.5615H96.025C96.7229 33.5615 97.3045 33.6778 97.8861 33.7942C98.3514 33.9105 98.8167 34.0268 99.2819 34.2594C102.655 35.6553 104.865 38.6796 104.865 42.4018Z" fill="url(#paint0_linear_141_600)"/>
<path opacity="0.1" d="M104.517 46.938H100.097L32.2822 46.7054C31.0027 46.7054 29.7232 46.4727 28.4437 46.1238C28.3274 46.1238 28.2111 46.0074 28.0947 46.0074C26.4663 45.4258 25.0704 44.7279 23.9072 43.5647C24.7215 42.7505 25.7683 42.0526 27.0479 41.5873C27.9784 41.122 29.1416 40.8894 30.3048 40.7731C30.7701 40.6567 31.2354 40.6567 31.7006 40.6567H96.0254C96.7233 40.6567 97.3049 40.7731 97.8865 40.8894C98.3518 41.0057 98.8171 41.122 99.2824 41.3547C101.841 42.4015 103.703 44.4953 104.517 46.938Z" />
<g filter="url(#filter0_d_141_600)">
<path d="M113.124 54.0334V111.146C113.124 115.101 109.983 118.242 106.029 118.242H37.5163C31.8166 118.242 27.3965 115.567 24.6048 113.356C23.3253 112.31 22.5111 110.681 22.5111 109.053C22.5111 108.238 22.5111 107.424 22.5111 106.61C22.5111 105.447 22.5111 104.051 22.5111 102.655C22.5111 96.1412 22.5111 87.4172 22.3947 78.5769C22.3947 77.2974 22.3947 76.0179 22.3947 74.622C22.3947 69.9692 22.3947 65.3165 22.2784 60.8963C22.2784 59.6168 22.2784 58.3373 22.2784 56.9414C22.2784 48.2175 22.1621 41.7036 22.1621 40.1914C22.1621 42.7504 24.6048 45.0768 27.8618 46.0074C27.9781 46.0074 28.0944 46.1237 28.2107 46.1237C29.3739 46.4727 30.7698 46.7053 32.0493 46.7053L99.8637 47.0543H104.749H105.912C109.983 46.9379 113.124 50.0786 113.124 54.0334Z" fill="url(#paint1_linear_141_600)"/>
</g>
<path opacity="0.1" d="M99.3987 73.459C96.956 73.459 94.8622 74.3895 93.3501 75.9017C91.8379 77.4139 90.791 79.6239 90.791 81.9503C90.791 82.0666 90.791 82.2993 90.791 82.4156C91.0237 86.9521 94.8622 90.558 99.3987 90.558H113.124V73.459H99.3987Z" fill="url(#paint2_linear_141_600)"/>
<g filter="url(#filter1_d_141_600)">
<path d="M113.124 70.2021V72.2959C113.008 72.2959 112.891 72.2959 112.659 72.2959H98.7004C96.2577 72.2959 94.164 73.2265 92.6518 74.7386C91.256 76.1344 90.2091 78.2282 90.0928 80.4383C90.0928 80.5546 90.0928 80.7872 90.0928 80.9036C90.0928 85.6727 93.9313 89.5112 98.7004 89.5112H112.659C113.357 89.5112 113.938 89.2786 114.171 88.9296C114.287 88.8133 114.404 88.5807 114.404 88.4643V71.249C114.404 70.6674 113.822 70.3185 113.124 70.2021Z" fill="url(#paint3_linear_141_600)"/>
</g>
<path d="M98.0028 86.0213C100.795 86.0213 103.121 83.6949 103.121 80.9032C103.121 78.1116 100.795 75.7852 98.0028 75.7852C95.2112 75.7852 92.8848 78.1116 92.8848 80.9032C92.8848 83.6949 95.2112 86.0213 98.0028 86.0213Z" fill="#E4E1F0"/>
<path d="M53.3578 85.5451C55.2797 85.5451 56.9059 83.9188 56.9059 81.9969C56.9059 80.075 55.2797 78.4487 53.3578 78.4487C51.4358 78.4487 49.8096 80.075 49.8096 81.9969C49.8096 83.9188 51.4358 85.5451 53.3578 85.5451Z" fill="#B9AEF1"/>
<path d="M80.5609 85.5451C82.4828 85.5451 84.109 83.9188 84.109 81.9969C84.109 80.075 82.4828 78.4487 80.5609 78.4487C78.6389 78.4487 77.0127 80.075 77.0127 81.9969C77.0127 84.0667 78.6389 85.5451 80.5609 85.5451Z" fill="#B9AEF1"/>
<path d="M53.2192 70.2583L45.4141 74.4727L46.4677 76.4239L54.2728 72.2096L53.2192 70.2583Z" fill="#B9AEF1"/>
<path d="M80.0778 70.2023L79.0244 72.1538L86.8304 76.3673L87.8838 74.4158L80.0778 70.2023Z" fill="#B9AEF1"/>
<path d="M66.9589 93.8241C69.2451 93.8241 71.0984 92.4341 71.0984 90.7194C71.0984 89.0047 69.2451 87.6147 66.9589 87.6147C64.6727 87.6147 62.8193 89.0047 62.8193 90.7194C62.8193 92.4341 64.6727 93.8241 66.9589 93.8241Z" fill="#B9AEF1"/>
<path d="M127.889 4.64864C116.344 2.11687 103.989 2.52195 92.6466 5.86389C90.3174 6.57279 87.7856 7.48423 85.9627 9.10456C83.1271 11.4338 81.9119 15.5859 82.8233 19.1304C83.7347 22.6749 86.7729 25.6117 90.5199 26.3206C92.8491 26.9283 95.6847 26.1181 97.1025 24.1939C98.419 22.1685 98.1152 19.1304 96.4949 17.3075C94.8746 15.2821 92.2415 14.4719 89.811 14.5732C87.3805 14.6745 84.95 15.5859 82.8233 16.6999C75.9369 20.4469 70.367 27.0295 68.0377 34.7261C66.857 38.4651 66.4411 42.3954 66.7435 46.2614" stroke="#D0CAEA" stroke-width="2" stroke-miterlimit="10" stroke-dasharray="4 4"/>
<path d="M133.965 2.01576C133.864 3.53482 133.763 4.95261 132.649 5.25643C131.535 5.56024 131.028 4.54753 130.32 3.12974C129.611 1.81321 130.016 0.39542 131.231 0.0916069C132.345 -0.212206 134.168 0.192878 133.965 2.01576Z" fill="#D5D2E6"/>
<path d="M132.751 9.30745C133.055 7.48457 133.358 6.47186 132.346 5.96551C131.232 5.45915 130.523 6.37059 129.308 7.58584C128.295 8.69982 128.902 10.3202 129.915 10.8265C131.13 11.4341 132.447 10.8265 132.751 9.30745Z" fill="#D5D2E6"/>
<path d="M134.168 5.96555C134.067 6.67445 133.561 7.1808 132.852 7.28207C132.548 7.28207 132.244 7.28207 131.839 7.28207C130.421 7.07953 129.307 6.16809 129.409 5.25665C129.51 4.34521 130.827 3.83886 132.447 4.0414C132.751 4.0414 133.054 4.14267 133.257 4.24394C133.865 4.44648 134.27 5.15538 134.168 5.96555C134.168 5.96555 134.168 5.86428 134.168 5.96555Z" fill="#B6ABEF"/>
<path d="M22.6836 21.2056C22.6836 19.484 22.6836 17.7624 23.8988 17.256C25.2154 16.7497 25.9243 17.9649 26.937 19.6865C27.8484 21.2056 27.4433 22.8259 26.1268 23.3323C25.0128 23.8386 22.6836 23.5348 22.6836 21.2056Z" fill="#D5D2E6"/>
<path d="M23.3925 12.6991C23.19 14.8258 22.8861 16.041 24.2027 16.5474C25.5192 17.0538 26.2281 15.9398 27.5446 14.3194C28.5573 12.9016 27.8484 11.0788 26.5319 10.5724C25.2154 10.0661 23.595 10.9775 23.3925 12.6991Z" fill="#D5D2E6"/>
<path d="M22.2783 16.7498C22.2783 15.9396 22.8859 15.332 23.5948 15.2307C23.8987 15.1295 24.3037 15.1295 24.7088 15.2307C26.3292 15.332 27.747 16.2434 27.6457 17.2562C27.5444 18.2689 26.2279 18.9778 24.5063 18.7752C24.2025 18.7752 23.8987 18.674 23.5948 18.5727C22.7847 18.4714 22.2783 17.6612 22.2783 16.7498Z" fill="#B6ABEF"/>
<path d="M29.165 17.0537C39.7985 17.0537 59.4451 23.2312 59.7489 45.9159" stroke="#D0CAEA" stroke-width="2" stroke-miterlimit="10" stroke-dasharray="4 4"/>
<defs>
<filter id="filter0_d_141_600" x="0.162109" y="29.1914" width="134.962" height="122.05" filterUnits="userSpaceOnUse" color-interpolation-filters="sRGB">
<feFlood flood-opacity="0" result="BackgroundImageFix"/>
<feColorMatrix in="SourceAlpha" type="matrix" values="0 0 0 0 0 0 0 0 0 0 0 0 0 0 0 0 0 0 127 0" result="hardAlpha"/>
<feOffset dy="11"/>
<feGaussianBlur stdDeviation="11"/>
<feColorMatrix type="matrix" values="0 0 0 0 0.397708 0 0 0 0 0.47749 0 0 0 0 0.575 0 0 0 0.27 0"/>
<feBlend mode="normal" in2="BackgroundImageFix" result="effect1_dropShadow_141_600"/>
<feBlend mode="normal" in="SourceGraphic" in2="effect1_dropShadow_141_600" result="shape"/>
</filter>
<filter id="filter1_d_141_600" x="68.0928" y="59.2021" width="68.3105" height="63.3091" filterUnits="userSpaceOnUse" color-interpolation-filters="sRGB">
<feFlood flood-opacity="0" result="BackgroundImageFix"/>
<feColorMatrix in="SourceAlpha" type="matrix" values="0 0 0 0 0 0 0 0 0 0 0 0 0 0 0 0 0 0 127 0" result="hardAlpha"/>
<feOffset dy="11"/>
<feGaussianBlur stdDeviation="11"/>
<feColorMatrix type="matrix" values="0 0 0 0 0.397708 0 0 0 0 0.47749 0 0 0 0 0.575 0 0 0 0.27 0"/>
<feBlend mode="normal" in2="BackgroundImageFix" result="effect1_dropShadow_141_600"/>
<feBlend mode="normal" in="SourceGraphic" in2="effect1_dropShadow_141_600" result="shape"/>
</filter>
<linearGradient id="paint0_linear_141_600" x1="63.5783" y1="34.0262" x2="63.5783" y2="41.5345" gradientUnits="userSpaceOnUse">
<stop stop-color="#7C6BD4"/>
<stop offset="1" stop-color="#352393"/>
</linearGradient>
<linearGradient id="paint1_linear_141_600" x1="67.6135" y1="38.386" x2="67.6135" y2="119.083" gradientUnits="userSpaceOnUse">
<stop stop-color="white"/>
<stop offset="0.9964" stop-color="#EBEAF3"/>
</linearGradient>
<linearGradient id="paint2_linear_141_600" x1="101.959" y1="74.053" x2="101.959" y2="83.6505" gradientUnits="userSpaceOnUse">
<stop stop-color="#7C6BD4"/>
<stop offset="1" stop-color="#352393"/>
</linearGradient>
<linearGradient id="paint3_linear_141_600" x1="102.24" y1="69.7555" x2="102.24" y2="89.7194" gradientUnits="userSpaceOnUse">
<stop stop-color="white"/>
<stop offset="0.9964" stop-color="#EBEAF3"/>
</linearGradient>
</defs>
</svg>
