<svg width="24" height="25" viewBox="0 0 24 25" fill="none" xmlns="http://www.w3.org/2000/svg">
<path fill-rule="evenodd" clip-rule="evenodd" d="M11 2.92723C11 1.81216 12.1735 1.08691 13.1708 1.58559L19.8944 4.94739C20.572 5.28617 21 5.9787 21 6.73625V18.2641C21 19.0217 20.572 19.7142 19.8944 20.053L13.1708 23.4148C12.1735 23.9134 11 23.1882 11 22.0731V2.92723ZM16 13.0002C16 13.8286 15.3284 14.5002 14.5 14.5002C13.6716 14.5002 13 13.8286 13 13.0002C13 12.1717 13.6716 11.5002 14.5 11.5002C15.3284 11.5002 16 12.1717 16 13.0002ZM7 4.50018C4.79086 4.50018 3 6.29104 3 8.50018V16.5002C3 18.7093 4.79086 20.5002 7 20.5002H8C8.55228 20.5002 9 20.0525 9 19.5002C9 18.9479 8.55228 18.5002 8 18.5002H7C5.89543 18.5002 5 17.6048 5 16.5002V8.50018C5 7.39561 5.89543 6.50018 7 6.50018H8C8.55228 6.50018 9 6.05247 9 5.50018C9 4.9479 8.55228 4.50018 8 4.50018H7Z"/>
</svg>
