<svg width="24" height="24" viewBox="0 0 24 24" fill="none" xmlns="http://www.w3.org/2000/svg">
<path fill-rule="evenodd" clip-rule="evenodd" d="M3.70711 2.29289C3.31658 1.90237 2.68342 1.90237 2.29289 2.29289C1.90237 2.68342 1.90237 3.31658 2.29289 3.70711L5.3548 6.76901C3.29651 8.05116 2 9.91959 2 12C2 15.866 6.47715 19 12 19C13.7183 19 15.3354 18.6966 16.748 18.1622L20.2929 21.7071C20.6834 22.0976 21.3166 22.0976 21.7071 21.7071C22.0976 21.3166 22.0976 20.6834 21.7071 20.2929L3.70711 2.29289ZM15.1642 16.5784L14.032 15.4462C13.4365 15.7981 12.7418 16 12 16C9.79086 16 8 14.2091 8 12C8 11.2582 8.20193 10.5635 8.55382 9.96803L6.81667 8.23089C6.55379 8.37423 6.30638 8.52735 6.07586 8.68872C4.63506 9.69727 4 10.8988 4 12C4 13.1012 4.63506 14.3027 6.07586 15.3113C7.51034 16.3154 9.5986 17 12 17C13.137 17 14.2037 16.8465 15.1642 16.5784ZM20 12C20 12.8267 19.6421 13.71 18.8541 14.5256L20.2676 15.9391C21.3608 14.817 22 13.4607 22 12C22 8.13401 17.5228 5 12 5C11.1517 5 10.3281 5.07394 9.54154 5.21311L11.3455 7.01709C11.5609 7.00579 11.7791 7 12 7C14.4014 7 16.4897 7.68458 17.9241 8.68872C19.3649 9.69727 20 10.8988 20 12Z" />
</svg>
