<svg width="30" height="30" viewBox="0 0 30 30" fill="none" xmlns="http://www.w3.org/2000/svg">
<path fill-rule="evenodd" clip-rule="evenodd" d="M25 15C25 16.7732 24.5385 18.4385 23.7291 19.8826C23.7335 19.9214 23.7372 19.9606 23.7402 20.0001H26.2501C26.3198 20.0001 26.3892 20.0012 26.4584 20.0035C27.1283 18.4714 27.5 16.7791 27.5 15C27.5 8.09644 21.9036 2.5 15 2.5C8.09644 2.5 2.5 8.09644 2.5 15C2.5 21.9036 8.09644 27.5 15 27.5C15.4692 27.5 15.9324 27.4741 16.3881 27.4238L15.3662 26.4019C14.9532 25.9889 14.6567 25.5035 14.4766 24.9865C9.19705 24.7143 5 20.3473 5 15C5 9.47715 9.47715 5 15 5C20.5228 5 25 9.47715 25 15ZM17.2465 24.7467L17.134 24.6341C16.6458 24.146 16.6458 23.3545 17.134 22.8664L20.1832 19.8172C20.5769 19.4235 21.2501 19.7023 21.2501 20.2591V22.5001H21.6145H23.7501H25.0009H26.2501C28.3211 22.5001 30.0001 24.179 30.0001 26.2501C30.0001 28.3211 28.3211 30.0001 26.2501 30.0001H25.2193C24.5289 30.0001 23.9693 29.4404 23.9693 28.7501C23.9693 28.0597 24.5289 27.5001 25.2193 27.5001H26.2501C26.9404 27.5001 27.5001 26.9404 27.5001 26.2501C27.5001 25.5597 26.9404 25.0001 26.2501 25.0001H22.5011H21.2501V25.2147V25.4676V25.8277V27.2414C21.2501 27.7982 20.5769 28.077 20.1832 27.6833L19.2565 26.7566L18.9289 26.429L18.7501 26.2502L17.2465 24.7467ZM13.75 20H16.4648L17.4112 19.0537C17.3019 18.8717 17.1027 18.75 16.875 18.75H13.75V17.5H16.25C19.0114 17.5 21.25 15.2614 21.25 12.5C21.25 9.73858 19.0114 7.5 16.25 7.5H13.25C12.1454 7.5 11.25 8.39543 11.25 9.5V16.25H9.375C9.02982 16.25 8.75 16.5298 8.75 16.875C8.75 17.2202 9.02982 17.5 9.375 17.5H11.25V18.75H9.375C9.02982 18.75 8.75 19.0298 8.75 19.375C8.75 19.7202 9.02982 20 9.375 20H11.25V21.25C11.25 21.9404 11.8096 22.5 12.5 22.5C13.1904 22.5 13.75 21.9404 13.75 21.25V20ZM18.75 12.5C18.75 13.8807 17.6307 15 16.25 15H13.75V10H16.25C17.6307 10 18.75 11.1193 18.75 12.5Z" />
</svg>
