<svg width="100" height="41" viewBox="0 0 100 41" fill="none" xmlns="http://www.w3.org/2000/svg">
<path d="M90.3433 4.49207H85.0869V0.822754H100V4.49207H94.744V18.1776H90.3433V4.49207Z" />
<path d="M70.5508 0.822754H83.0194V4.24414H74.9515V7.64074H82.2859V10.8638H74.9515V14.7562H83.0194V18.1776H70.5508V0.822754Z" />
<path d="M60.1521 18.4995C58.9786 18.4995 57.8947 18.3342 56.9005 18.0036C55.9062 17.6731 55.0424 17.1524 54.3089 16.4417C53.5755 15.7144 52.9969 14.7888 52.5731 13.6649C52.1656 12.541 51.9619 11.1939 51.9619 9.62371V9.12785C51.9619 7.62376 52.1738 6.33454 52.5976 5.26019C53.0213 4.16932 53.5999 3.27678 54.3334 2.58259C55.0668 1.87186 55.9225 1.35122 56.9005 1.02065C57.8784 0.673549 58.9215 0.5 60.0298 0.5C61.0078 0.5 61.9205 0.615699 62.768 0.847097C63.6156 1.0785 64.3653 1.44212 65.0173 1.93798C65.6692 2.4173 66.2071 3.03712 66.6309 3.79743C67.0709 4.55773 67.3561 5.4668 67.4865 6.52462H62.9392C62.8251 6.06182 62.6621 5.68167 62.4502 5.38416C62.2383 5.08665 62.002 4.85525 61.7412 4.68996C61.4804 4.50815 61.2033 4.38419 60.91 4.31807C60.6166 4.25196 60.3232 4.2189 60.0298 4.2189C59.5083 4.2189 59.0275 4.30154 58.5874 4.46683C58.1636 4.63211 57.7969 4.90483 57.4872 5.28499C57.1775 5.66514 56.9331 6.16926 56.7538 6.79734C56.5908 7.42542 56.5093 8.20226 56.5093 9.12785V9.62371C56.5093 10.5493 56.5989 11.3427 56.7782 12.0038C56.9575 12.6484 57.202 13.1773 57.5117 13.5905C57.8376 14.0037 58.2207 14.3095 58.6607 14.5079C59.1171 14.6897 59.6142 14.7806 60.1521 14.7806C60.5921 14.7806 61.0241 14.7227 61.4478 14.607C61.8879 14.4913 62.2709 14.3095 62.5969 14.0616C62.9392 13.8137 63.2162 13.5079 63.4281 13.1443C63.64 12.7641 63.7541 12.3096 63.7704 11.7807H60.641V8.9543H67.8533V10.1196C67.8533 11.6071 67.6577 12.8798 67.2665 13.9376C66.8916 14.9955 66.3619 15.8632 65.6774 16.5409C64.9928 17.2185 64.1779 17.7144 63.2325 18.0284C62.3035 18.3425 61.2767 18.4995 60.1521 18.4995Z" />
<path d="M35.0967 0.822754H41.5755C42.8631 0.822754 44.0121 1.00457 45.0227 1.36819C46.0332 1.71529 46.8889 2.23594 47.5897 2.93013C48.2906 3.62433 48.8284 4.49207 49.2033 5.53336C49.5782 6.57465 49.7656 7.77297 49.7656 9.1283V9.62415C49.7656 11.0125 49.57 12.2439 49.1789 13.3183C48.804 14.3761 48.2498 15.2686 47.5164 15.9959C46.7992 16.7066 45.9191 17.252 44.876 17.6322C43.8328 17.9958 42.6512 18.1776 41.331 18.1776H35.0967V0.822754ZM41.0865 14.5083C41.6407 14.5083 42.1622 14.4257 42.6512 14.2604C43.1564 14.0786 43.5965 13.7976 43.9714 13.4174C44.3626 13.0373 44.6641 12.5332 44.876 11.9051C45.1042 11.277 45.2182 10.5167 45.2182 9.62415V9.1283C45.2182 8.28535 45.1123 7.57463 44.9004 6.99613C44.7048 6.40111 44.4278 5.92178 44.0692 5.55816C43.7269 5.178 43.3194 4.90528 42.8468 4.74C42.3741 4.57471 41.8688 4.49207 41.331 4.49207H39.4974V14.5083H41.0865Z" />
<path d="M24.4499 18.4999C23.309 18.4999 22.274 18.3512 21.3449 18.0537C20.4322 17.7396 19.6499 17.2851 18.9979 16.6901C18.3623 16.0785 17.8652 15.3182 17.5066 14.4091C17.1643 13.5001 16.9932 12.4423 16.9932 11.2357V0.822754H21.3938V10.715C21.3938 12.0538 21.622 13.0703 22.0784 13.7645C22.5348 14.4422 23.3253 14.781 24.4499 14.781C25.6071 14.781 26.4057 14.4422 26.8458 13.7645C27.2859 13.0703 27.5059 12.0621 27.5059 10.7398V0.822754H31.9066V11.2357C31.9066 12.4423 31.7354 13.5001 31.3932 14.4091C31.0509 15.3182 30.5538 16.0785 29.9018 16.6901C29.2662 17.2851 28.4838 17.7396 27.5548 18.0537C26.6421 18.3512 25.6071 18.4999 24.4499 18.4999Z" />
<path d="M0 0.822754H8.19016C10.1949 0.822754 11.6537 1.2277 12.5664 2.0376C13.4791 2.83096 13.9355 3.97142 13.9355 5.45899C13.9355 6.35152 13.7073 7.12009 13.2509 7.7647C12.7946 8.39279 12.1752 8.84732 11.3929 9.1283C12.4034 9.3597 13.202 9.83076 13.7888 10.5415C14.3756 11.2357 14.6689 12.1447 14.6689 13.2687C14.6689 14.7893 14.1718 15.9876 13.1776 16.8636C12.1997 17.7396 10.6187 18.1776 8.43464 18.1776H0V0.822754ZM7.45671 14.7562C8.51613 14.7562 9.24958 14.5992 9.65705 14.2852C10.0645 13.9546 10.2683 13.4505 10.2683 12.7728C10.2683 12.0952 10.0564 11.591 9.6326 11.2605C9.22513 10.9299 8.48354 10.7646 7.40781 10.7646H4.40068V14.7562H7.45671ZM7.11444 7.73991C8.05977 7.73991 8.69542 7.59115 9.0214 7.29364C9.36367 6.9796 9.53481 6.5416 9.53481 5.97963C9.53481 5.40114 9.36367 4.9714 9.0214 4.69041C8.69542 4.3929 8.06792 4.24414 7.13888 4.24414H4.40068V7.73991H7.11444Z" />
<path d="M93.8936 25.8997H96.8105V27.3397C96.8927 27.1663 97.0159 26.9797 97.1803 26.7797C97.3583 26.5797 97.5637 26.393 97.7965 26.2197C98.0293 26.0463 98.2895 25.9063 98.5771 25.7996C98.8784 25.693 99.2002 25.6396 99.5426 25.6396C99.7754 25.6396 99.9603 25.653 100.097 25.6796C100.234 25.7063 100.357 25.733 100.467 25.7597V28.4197C100.399 28.3797 100.241 28.333 99.9945 28.2797C99.748 28.2263 99.4604 28.1997 99.1318 28.1997C98.4059 28.1997 97.8787 28.4063 97.55 28.8197C97.2214 29.233 97.057 29.733 97.057 30.3197V36.4998H93.8936V25.8997Z" />
<path d="M87.0153 36.7598C86.221 36.7598 85.4746 36.6531 84.7762 36.4398C84.0915 36.2131 83.4957 35.8731 82.989 35.4197C82.4823 34.9664 82.0852 34.3997 81.7976 33.7197C81.51 33.0264 81.3662 32.2197 81.3662 31.2997V30.8997C81.3662 30.0197 81.5032 29.253 81.7771 28.5997C82.0646 27.9463 82.4481 27.3997 82.9274 26.9597C83.4204 26.5197 83.9956 26.193 84.6529 25.9797C85.324 25.753 86.0429 25.6396 86.8098 25.6396C88.6038 25.6396 89.9596 26.093 90.8772 26.9997C91.7947 27.893 92.2535 29.193 92.2535 30.8997V31.9997H84.6118C84.6255 32.413 84.7009 32.7664 84.8378 33.0597C84.9748 33.3397 85.1528 33.5731 85.3719 33.7597C85.591 33.9464 85.8375 34.0864 86.1114 34.1797C86.399 34.2597 86.7003 34.2997 87.0153 34.2997C87.6178 34.2997 88.0903 34.2131 88.4327 34.0397C88.7887 33.8531 89.0215 33.6064 89.1311 33.2997H92.0481C91.8289 34.4597 91.288 35.3264 90.4252 35.8997C89.5625 36.4731 88.4258 36.7598 87.0153 36.7598ZM86.9126 28.0797C86.625 28.0797 86.3442 28.113 86.0703 28.1797C85.8101 28.2463 85.5705 28.3597 85.3514 28.5197C85.1459 28.6663 84.9748 28.8597 84.8378 29.0997C84.7146 29.3397 84.6461 29.633 84.6324 29.9797H89.1516C89.1516 29.6064 89.09 29.2997 88.9668 29.0597C88.8435 28.8197 88.6792 28.6263 88.4737 28.4797C88.282 28.333 88.0492 28.233 87.7753 28.1797C87.5014 28.113 87.2138 28.0797 86.9126 28.0797Z" />
<path d="M69.3389 25.8997H72.2558V27.3397C72.5297 26.873 72.9543 26.473 73.5294 26.1397C74.1183 25.8063 74.8989 25.6396 75.8712 25.6396C77.1722 25.6396 78.1514 25.9863 78.8087 26.6797C79.4798 27.3597 79.8153 28.333 79.8153 29.5997V36.4998H76.6518V30.2997C76.6518 29.6064 76.4943 29.0863 76.1794 28.7397C75.8781 28.3797 75.3782 28.1997 74.6798 28.1997C74.2963 28.1997 73.9677 28.2597 73.6938 28.3797C73.4199 28.4863 73.1939 28.633 73.0159 28.8197C72.8379 29.0063 72.7078 29.233 72.6256 29.4997C72.5434 29.753 72.5023 30.0197 72.5023 30.2997V36.4998H69.3389V25.8997Z" />
<path d="M56.9014 25.8997H59.8183V27.3397C60.0922 26.873 60.5168 26.473 61.0919 26.1397C61.6808 25.8063 62.4614 25.6396 63.4337 25.6396C64.7347 25.6396 65.7139 25.9863 66.3712 26.6797C67.0423 27.3597 67.3778 28.333 67.3778 29.5997V36.4998H64.2143V30.2997C64.2143 29.6064 64.0568 29.0863 63.7419 28.7397C63.4406 28.3797 62.9407 28.1997 62.2423 28.1997C61.8588 28.1997 61.5302 28.2597 61.2563 28.3797C60.9824 28.4863 60.7564 28.633 60.5784 28.8197C60.4004 29.0063 60.2703 29.233 60.1881 29.4997C60.1059 29.753 60.0648 30.0197 60.0648 30.2997V36.4998H56.9014V25.8997Z" />
<path d="M48.3753 36.7598C47.7864 36.7598 47.2592 36.6731 46.7936 36.4998C46.3416 36.3264 45.9582 36.0931 45.6432 35.7997C45.3282 35.4931 45.0886 35.1397 44.9242 34.7397C44.7599 34.3264 44.6777 33.8797 44.6777 33.3997C44.6777 32.3464 45.0064 31.5397 45.6637 30.9797C46.3348 30.4197 47.3413 30.1397 48.6834 30.1397H51.7853V29.6997C51.7853 29.0597 51.6278 28.6197 51.3128 28.3797C50.9978 28.1263 50.5664 27.9997 50.0187 27.9997C49.4983 27.9997 49.1148 28.0797 48.8683 28.2397C48.6218 28.3997 48.4849 28.653 48.4575 28.9997H45.294C45.3214 28.5197 45.4446 28.0797 45.6637 27.6797C45.8829 27.2663 46.191 26.913 46.5881 26.6197C46.999 26.313 47.4988 26.073 48.0877 25.8997C48.6766 25.7263 49.3545 25.6396 50.1214 25.6396C50.8335 25.6396 51.484 25.7196 52.0729 25.8797C52.6754 26.0263 53.189 26.273 53.6135 26.6197C54.038 26.953 54.3667 27.393 54.5995 27.9397C54.8323 28.473 54.9487 29.1263 54.9487 29.8997V33.7997C54.9487 34.3597 54.9624 34.8531 54.9898 35.2797C55.0172 35.6931 55.0583 36.0998 55.1131 36.4998H52.1139C52.0866 36.2731 52.0592 36.0731 52.0318 35.8997C52.0181 35.7264 52.0112 35.5131 52.0112 35.2597C51.6826 35.6864 51.2238 36.0464 50.6349 36.3398C50.0597 36.6198 49.3065 36.7598 48.3753 36.7598ZM49.4024 34.5997C50.0734 34.5997 50.6349 34.4131 51.0868 34.0397C51.5525 33.6664 51.7853 33.1531 51.7853 32.4997V32.0597H49.2997C48.8341 32.0597 48.4849 32.1797 48.252 32.4197C48.0329 32.6597 47.9234 32.9397 47.9234 33.2597C47.9234 33.6464 48.0329 33.9664 48.252 34.2197C48.4849 34.4731 48.8683 34.5997 49.4024 34.5997Z" />
<path d="M42.0083 36.6201C41.3509 36.6201 40.7826 36.5668 40.3033 36.4601C39.824 36.3535 39.4268 36.1601 39.1119 35.8801C38.8106 35.5868 38.5846 35.1935 38.434 34.7001C38.2833 34.1934 38.208 33.5468 38.208 32.7601V22.5H41.3715V32.3001C41.3715 32.6334 41.392 32.9134 41.4331 33.1401C41.4742 33.3668 41.5427 33.5468 41.6385 33.6801C41.7481 33.8134 41.8987 33.9134 42.0904 33.9801C42.2822 34.0334 42.5218 34.0601 42.8094 34.0601C42.9738 34.0601 43.1107 34.0601 43.2203 34.0601C43.3298 34.0468 43.4394 34.0334 43.5489 34.0201V36.5601C43.1381 36.6001 42.6245 36.6201 42.0083 36.6201Z" />
<path d="M25.4668 25.8997H28.3838V27.3397C28.5207 27.1263 28.6919 26.9197 28.8973 26.7197C29.1164 26.5063 29.3698 26.3197 29.6574 26.1597C29.945 25.9997 30.2668 25.873 30.6228 25.7797C30.9789 25.6863 31.3624 25.6396 31.7732 25.6396C33.307 25.6396 34.471 26.0797 35.2653 26.9597C36.0596 27.8397 36.4568 29.153 36.4568 30.8997V31.2997C36.4568 32.2064 36.3472 32.9997 36.1281 33.6797C35.909 34.3597 35.594 34.9264 35.1832 35.3797C34.7723 35.8331 34.2793 36.1798 33.7041 36.4198C33.129 36.6464 32.4853 36.7598 31.7732 36.7598C31.1569 36.7598 30.5681 36.6264 30.0066 36.3598C29.4588 36.0798 29 35.6797 28.6303 35.1597V40.4998H25.4668V25.8997ZM31.0131 34.2197C31.6431 34.2197 32.1635 33.9731 32.5743 33.4797C32.9989 32.9864 33.2111 32.2597 33.2111 31.2997V30.8997C33.2111 29.9797 33.0057 29.2997 32.5949 28.8597C32.1977 28.4063 31.6705 28.1797 31.0131 28.1797C30.3421 28.1797 29.7738 28.3863 29.3082 28.7997C28.8562 29.1997 28.6303 29.7997 28.6303 30.5997V31.5997C28.6303 32.4397 28.8562 33.0864 29.3082 33.5397C29.7738 33.9931 30.3421 34.2197 31.0131 34.2197Z" />
</svg>
