<svg width="30" height="26" viewBox="0 0 30 26" fill="none" xmlns="http://www.w3.org/2000/svg">
<path d="M15 8H22.1525C24.5952 8 26.3938 8.53539 27.5483 9.60618C28.7194 10.6602 29.305 12.1242 29.305 13.9981C29.305 15.8719 28.7194 17.3443 27.5483 18.4151C26.3938 19.4691 24.5952 19.9961 22.1525 19.9961H19.5174V25.5676H15V8ZM21.6506 16.2819C22.805 16.2819 23.6165 16.0895 24.0849 15.7046C24.5534 15.3198 24.7876 14.751 24.7876 13.9981C24.7876 13.2452 24.5534 12.6763 24.0849 12.2915C23.6165 11.9067 22.805 11.7143 21.6506 11.7143H19.5174V16.2819H21.6506Z" />
<path d="M0 0H8.40734C10.4653 0 11.9627 0.409911 12.8996 1.22973C13.8366 2.03282 14.305 3.18726 14.305 4.69305C14.305 5.59653 14.0708 6.37452 13.6023 7.02703C13.1339 7.66281 12.4981 8.12291 11.695 8.40734C12.7323 8.64158 13.5521 9.11841 14.1544 9.83784C14.7568 10.5405 15.0579 11.4608 15.0579 12.5985C15.0579 14.1377 14.5476 15.3507 13.527 16.2375C12.5232 17.1242 10.9003 17.5676 8.65831 17.5676H0V0ZM7.65445 14.1043C8.74196 14.1043 9.49486 13.9453 9.91313 13.6274C10.3314 13.2928 10.5405 12.7825 10.5405 12.0965C10.5405 11.4106 10.323 10.9003 9.88804 10.5656C9.46976 10.231 8.7085 10.0637 7.60425 10.0637H4.51738V14.1043H7.65445ZM7.30309 7.00194C8.27349 7.00194 8.926 6.85136 9.26062 6.5502C9.61197 6.23231 9.78765 5.78894 9.78765 5.22008C9.78765 4.6345 9.61197 4.19949 9.26062 3.91506C8.926 3.6139 8.28186 3.46332 7.32819 3.46332H4.51738V7.00194H7.30309Z" />
</svg>
