<svg width="24" height="24" viewBox="0 0 24 24" fill="none" xmlns="http://www.w3.org/2000/svg">
<path fill-rule="evenodd" clip-rule="evenodd" d="M15.7724 2C15.3321 3.40126 14.2925 4.48397 13 4.85821V5.14175C14.2925 5.51599 15.3322 6.59872 15.7724 8H16.2276C16.6679 6.59873 17.7075 5.516 19 5.14175V4.85821C17.7075 4.48396 16.6679 3.40125 16.2276 2H15.7724ZM9.33741 3.54949C9.44878 3.15493 9.30804 2.73236 8.98233 2.48337C8.65661 2.23439 8.21192 2.20943 7.86039 2.42042C4.95075 4.16679 3 7.35516 3 11.0001C3 12.327 3.25842 13.5935 3.72768 14.7521C3.77367 14.6541 3.81507 14.5506 3.85111 14.4417C4.06985 13.7807 4.6046 13.2685 5.27285 13.0793C5.0949 12.4163 5 11.7193 5 11.0001C5 8.96964 5.75618 7.11526 7.00392 5.70384C7.00131 5.8023 7 5.90106 7 6.00012C7 12.0753 11.9249 17.0001 18 17.0001C18.0991 17.0001 18.1979 16.9988 18.2963 16.9962C16.8849 18.244 15.0305 19.0001 13 19.0001C12.2719 19.0001 11.5666 18.9029 10.8962 18.7207C10.6853 19.365 10.1711 19.8707 9.52401 20.0727C9.40202 20.1108 9.27958 20.1654 9.15998 20.2363C10.3423 20.7284 11.6394 21.0001 13 21.0001C16.645 21.0001 19.8334 19.0494 21.5797 16.1397C21.7907 15.7882 21.7658 15.3435 21.5168 15.0178C21.2678 14.6921 20.8452 14.5513 20.4507 14.6627C19.6727 14.8823 18.8509 15.0001 18 15.0001C13.0294 15.0001 9 10.9707 9 6.00012C9 5.1492 9.11781 4.32745 9.33741 3.54949ZM3 17.8582C4.29248 17.484 5.33215 16.4013 5.7724 15H6.22762C6.66787 16.4013 7.70753 17.484 9 17.8582V18.1418C7.70752 18.516 6.66785 19.5987 6.22761 21H5.77241C5.33217 19.5987 4.29249 18.516 3 18.1417V17.8582Z"/>
</svg>
