<svg width="30" height="30" viewBox="0 0 30 30" fill="none" xmlns="http://www.w3.org/2000/svg">
<path fill-rule="evenodd" clip-rule="evenodd" d="M24.953 15.9756C24.9841 15.6546 25 15.3291 25 15C25 9.47715 20.5228 5 15 5C9.47715 5 5 9.47715 5 15C5 20.5228 9.47715 25 15 25C16.0771 25 17.1144 24.8297 18.0866 24.5146C18.6374 25.3778 19.532 26.0005 20.5773 26.1898C18.8984 27.0283 17.0043 27.5 15 27.5C8.09644 27.5 2.5 21.9036 2.5 15C2.5 8.09644 8.09644 2.5 15 2.5C21.9036 2.5 27.5 8.09644 27.5 15C27.5 15.4899 27.4718 15.9732 27.417 16.4483C26.6704 15.9266 25.7741 15.801 24.953 15.9756ZM11.25 9.5C11.25 8.39543 12.1454 7.5 13.25 7.5H16.25C19.0114 7.5 21.25 9.73858 21.25 12.5C21.25 15.2614 19.0114 17.5 16.25 17.5H13.75V18.75H16.875C17.2202 18.75 17.5 19.0298 17.5 19.375C17.5 19.7202 17.2202 20 16.875 20H13.75V21.25C13.75 21.9404 13.1904 22.5 12.5 22.5C11.8096 22.5 11.25 21.9404 11.25 21.25V20H9.375C9.02982 20 8.75 19.7202 8.75 19.375C8.75 19.0298 9.02982 18.75 9.375 18.75H11.25V17.5H9.375C9.02982 17.5 8.75 17.2202 8.75 16.875C8.75 16.5298 9.02982 16.25 9.375 16.25H11.25V9.5ZM16.25 15C17.6307 15 18.75 13.8807 18.75 12.5C18.75 11.1193 17.6307 10 16.25 10H13.75V15H16.25ZM20 22.5C20 21.8096 20.5596 21.25 21.25 21.25H25V19.0089C25 18.4521 25.6732 18.1732 26.0669 18.5669L29.1161 21.6161C29.6043 22.1043 29.6043 22.8957 29.1161 23.3839L26.0669 26.4331C25.6732 26.8268 25 26.5479 25 25.9911V23.75H21.25C20.5596 23.75 20 23.1904 20 22.5Z"/>
</svg>
