<svg width="24" height="24" viewBox="0 0 24 24" fill="none" xmlns="http://www.w3.org/2000/svg">
<path fill-rule="evenodd" clip-rule="evenodd" d="M20 18C20 19.1046 19.1046 20 18 20H6C4.89543 20 4 19.1046 4 18V5C4 4.44772 4.44771 4 5 4H6V9C6 10.1046 6.89543 11 8 11H14C15.1046 11 16 10.1046 16 9V4H16.3129C16.5781 4 16.8325 4.10536 17.02 4.29289L19.7071 6.97998C19.8946 7.16752 20 7.42187 20 7.68709V18ZM14 4H11V8C11 8.55228 11.4477 9 12 9H13C13.5523 9 14 8.55228 14 8V4ZM16 2H16.3129C17.1086 2 17.8716 2.31607 18.4342 2.87868L21.1213 5.56577C21.6839 6.12838 22 6.89144 22 7.68709V18C22 20.2091 20.2091 22 18 22H6C3.79086 22 2 20.2091 2 18V5C2 3.34315 3.34315 2 5 2H6H16Z" />
</svg>
