<svg width="24" height="24" viewBox="0 0 24 24" fill="none" xmlns="http://www.w3.org/2000/svg">
<path fill-rule="evenodd" clip-rule="evenodd" d="M20 12C20 13.1012 19.3649 14.3027 17.9241 15.3113C16.4897 16.3154 14.4014 17 12 17C9.5986 17 7.51034 16.3154 6.07586 15.3113C4.63506 14.3027 4 13.1012 4 12C4 10.8988 4.63506 9.69728 6.07586 8.68872C7.51034 7.68458 9.5986 7 12 7C14.4014 7 16.4897 7.68458 17.9241 8.68872C19.3649 9.69728 20 10.8988 20 12ZM22 12C22 15.866 17.5228 19 12 19C6.47715 19 2 15.866 2 12C2 8.13401 6.47715 5 12 5C17.5228 5 22 8.13401 22 12ZM14 12C14 13.1046 13.1046 14 12 14C10.8954 14 10 13.1046 10 12C10 10.8954 10.8954 10 12 10C13.1046 10 14 10.8954 14 12ZM16 12C16 14.2091 14.2091 16 12 16C9.79086 16 8 14.2091 8 12C8 9.79086 9.79086 8 12 8C14.2091 8 16 9.79086 16 12Z" />
</svg>
