<svg width="36" height="36" viewBox="0 0 36 36" fill="none" xmlns="http://www.w3.org/2000/svg">
<path fill-rule="evenodd" clip-rule="evenodd" d="M29.9436 19.1707C29.9809 18.7855 30 18.395 30 18C30 11.3726 24.6274 6 18 6C11.3726 6 6 11.3726 6 18C6 24.6274 11.3726 30 18 30C19.2925 30 20.5373 29.7956 21.7039 29.4175C22.3649 30.4534 23.4384 31.2006 24.6928 31.4278C22.6781 32.4339 20.4051 33 18 33C9.71573 33 3 26.2843 3 18C3 9.71573 9.71573 3 18 3C26.2843 3 33 9.71573 33 18C33 18.5878 32.9662 19.1678 32.9004 19.738C32.0044 19.1119 30.9289 18.9613 29.9436 19.1707ZM13.5 11.4C13.5 10.0745 14.5745 9 15.9 9H19.5C22.8137 9 25.5 11.6863 25.5 15C25.5 18.3137 22.8137 21 19.5 21H16.5V22.5H20.25C20.6642 22.5 21 22.8358 21 23.25C21 23.6642 20.6642 24 20.25 24H16.5V25.5C16.5 26.3284 15.8284 27 15 27C14.1716 27 13.5 26.3284 13.5 25.5V24H11.25C10.8358 24 10.5 23.6642 10.5 23.25C10.5 22.8358 10.8358 22.5 11.25 22.5H13.5V21H11.25C10.8358 21 10.5 20.6642 10.5 20.25C10.5 19.8358 10.8358 19.5 11.25 19.5H13.5V11.4ZM19.5 18C21.1569 18 22.5 16.6569 22.5 15C22.5 13.3431 21.1569 12 19.5 12H16.5V18H19.5ZM24 27C24 26.1716 24.6716 25.5 25.5 25.5L30 25.5V22.8107C30 22.1425 30.8079 21.8079 31.2803 22.2803L34.9393 25.9393C35.5251 26.5251 35.5251 27.4749 34.9393 28.0607L31.2803 31.7197C30.8079 32.1921 30 31.8575 30 31.1893V28.5L25.5 28.5C24.6716 28.5 24 27.8284 24 27Z" />
</svg>
